<svg  xmlns="http://www.w3.org/2000/svg"  viewBox="0 0 1797.6 980.50665"  height="980.50665"
   width="1797.6"  xml:space="preserve"  id="svg2">
    <defs
     id="defs6" />
    <g transform="matrix(1.3333333,0,0,-1.3333333,0,980.50667)" id="g10">
        <g  transform="scale(0.1)" id="republic">
        <path  id="Atyrau" style="fill:#fad43d;fill-opacity:1;fill-rule:nonzero;stroke:none" d="m 3106.17,2672.63 -44.14,58.72 -293.23,296.49 3.34,517.92 -20.46,205.28 -57.13,79.56 -104.44,-65.76 -123.91,57.09 -67.35,174.27 -123.45,27.07 -71.57,-120.27 -271.96,-253.51 -223.55,143.69 -742.386,-387.52 -711.114,85.91 -8.75,-73.05 115.899,-122.7 261.027,-35.86 205.649,-337.62 -64.77,-103.62 7.539,-95.8 361.306,-171.3 186.58,257.67 292.9,13.82 584.41,-113.87 -25.79,-90.09 h 328.15 l 607.2,53.48" />
            <path  id="Mangghystau" style="fill:#fad43d;fill-opacity:1;fill-rule:nonzero;stroke:none" d="m 3146.73,2621.32 -646.56,-56.82 h -344.99 l -13.69,-47.8 -114.02,-308.16 -350.55,-56.16 -119.68,-171.77 41.94,-108.07 -305.32,-129.3 484.42,-680.96 276.99,-117.51 -35.35,-420.34 108.77,97.761 471.27,167.789 378.52,-496.14 205.23,31.789 0.58,1660.721 153.52,49.12 -76.82,463.8 -114.26,122.05" />
            <path id="WestKazakhstan" style="fill:#fad43d;fill-opacity:1;fill-rule:nonzero;stroke:none" d="m 1711.16,3856.31 214.52,-137.87 235.17,219.22 176.72,296.95 260.29,62.85 35.05,643.78 -854.63,404.1 -959.35,-614.9 8.035,-335 L 631.402,4352.9 363.313,4604.43 57.5234,3761.69 0.00390625,3624.67 262.008,3551.6 l -0.688,-5.76 694.352,-83.89 755.488,394.36" />
            <path  id="Aqtobe" style="fill:#fad43d;fill-opacity:1;fill-rule:nonzero;stroke:none" d="m 4575.69,2953.91 323.41,419.36 238.78,18.25 282.54,-337.74 410.81,333.33 -79.42,108.02 -283.94,301.51 -196.94,215.86 -66.94,260.1 151.31,156.06 -168.49,430.57 -17.67,91.67 -154.53,77.03 -15.5,-240.28 -484.83,73.02 -215.07,-36.59 -369.65,187.61 -322.59,-8.62 -499.59,-277.36 -421.1,190.65 -36.06,-662.48 -277.46,-67.01 -67.91,-114.11 134.39,-29.47 69.96,-180.99 76.88,-35.43 122.86,77.38 95.67,-133.21 22.2,-222.75 -3.22,-498.14 281.01,-284.48 73.95,-98.37 133.66,-142.78 78.22,-472.22 568.31,181.83 -16.23,14.56 633.18,705.22" />
            <path  id="NorthKazakhstan" style="fill:#fad43d;fill-opacity:1;fill-rule:nonzero;stroke:none" d="m 6558.71,6128.32 -58.26,-233.29 296.14,-101.81 319.99,67.54 198.99,255.33 23.49,330.42 391.14,28.82 210.76,-174.71 368.29,11.68 85.94,-227.4 302.58,50.68 171.55,-196.77 177.18,-52.54 -19.09,82.29 -112.58,326.43 25.43,25.46 43.5,269.31 -473.99,160.92 -282.7,-92.03 -137.59,558.75 -650.67,136.38 -235.58,-209.06 -677.3,-220.63 15.02,-246.45 17.76,-549.32" />
            <path  id="Pavlodar" style="fill:#fad43d;fill-opacity:1;fill-rule:nonzero;stroke:none" d="m 9161.17,5633.59 -139.71,-441.71 80.99,-341.69 h 237.46 l 123.75,-300.7 466.21,95.39 223.53,180.49 209.6,-216.01 158.4,-78.98 146.5,17.32 35.9,188.21 -214,246.29 390.6,275.28 -493,908.03 -429.26,480.4 95.16,161.87 -138.97,0.87 -761.42,-483.17 -172.96,-51.71 100.37,-291.48 80.85,-348.7" />
            <path  id="Qyzylorda" style="fill:#fad43d;fill-opacity:1;fill-rule:nonzero;stroke:none" d="m 7086.84,1476.39 -126.01,108.4 -120.25,497.05 v 246.05 l -49.64,168.48 -457.44,19.47 -934.15,477.97 -285.34,341.07 -186.48,-14.23 -310.5,-402.5 -596.35,-664.2 24.99,7.99 53.04,-27.92 229.75,-143.75 32.22,77.69 45.71,76.44 90.07,-258.54 660.97,-687.17 320.36,45.95 598.76,34.4 430.29,-371.5 32.36,-219.079 412.28,346.169 135.36,341.76" />
            <path id="Qostanay" style="fill:#fad43d;fill-opacity:1;fill-rule:nonzero;stroke:none" d="m 5217.69,4987.76 22.3,-115.71 179.04,-456.19 -154.49,-159.31 55.94,-217.26 187.46,-205.51 248.7,-264.06 2.46,12.03 225.39,355.51 222.46,-36.35 251.21,111.61 594.17,712.64 -43.83,72.6 15.65,9.46 -113.64,-13.82 -496.02,216.63 -158.53,30.4 -22.61,450.66 198.92,356.51 71.58,286.57 -17.48,540.92 -14.12,231.52 -355.53,-115.82 -1211.84,-215.19 -108.37,-203.4 210.14,-361.01 -267.62,-137.32 8.34,-229.21 -311.53,-237.63 551.76,-331.7 10.82,21.72 219.27,-109.29" />
            <path id="Aqmola" style="fill:#fad43d;fill-opacity:1;fill-rule:nonzero;stroke:none" d="m 7444.48,4686.78 378.32,-120.11 156.11,21.36 249.95,286.46 159.84,-140.07 194.28,56.96 89,167.22 297.5,250.12 135.09,427.1 -43.88,189.24 -222.13,65.86 -161.9,185.7 -316.73,-53.04 -88,232.86 -349.94,-11.1 -209.72,173.86 -322.03,-23.71 -21.34,-299.87 -221.5,-284.2 -354.29,-74.79 -305.95,105.17 -3.61,-14.48 -194.84,-349.16 19.68,-392.13 125.18,-24.69 485.15,-211.88 373.94,45.44 151.82,-208.12" />
            <path id="Zhambyl" style="fill:#fad43d;fill-opacity:1;fill-rule:nonzero;stroke:none" d="m 9530.05,1573.08 -282.56,285.93 -193.96,322.13 v 246.89 l -1534.33,-13.38 225.76,-783.59 -57.72,-343.9 159.82,-106.43 61.62,-208.511 175.03,-243.328 88.7,170.57 197.43,92.488 511.21,-160.91 50.89,202.451 242.17,129.29 426.88,-171.768 83.26,11.788 -170.14,309.1 15.94,261.18" />
            <path id="Qaraghandy" style="fill:#fad43d;fill-opacity:1;fill-rule:nonzero;stroke:none" d="m 10029.1,3112.67 82.6,449.8 -25.8,383.36 -166.92,171.76 390.82,468.03 -160.9,165.88 -195.05,-157.51 -523.53,-107.1 -127.02,308.65 h -244.04 l -82.48,347.93 -261.52,-219.89 -94.85,-178.17 -245.16,-71.88 -141.23,123.77 -227.4,-260.63 -188.63,-25.82 -407.1,129.27 -143.49,196.66 -203.67,-24.75 55.52,-91.96 -627.27,-752.33 -277.76,-123.4 -202.9,33.17 -200.7,-316.53 -8.58,-41.92 104.09,-141.56 -439.59,-356.69 881.23,-450.89 484.55,-20.61 21.76,-73.87 628.71,-6.45 1588.21,13.83 324.55,265.34 364.38,58.82 352.07,-74.7 157.6,94.57 v 165.94 l -194.3,-25.38 -46.2,145.26" />
            <path id="Almaty" style="fill:#fad43d;fill-opacity:1;fill-rule:nonzero;stroke:none"
         d="m 11186.6,2808.74 -308.3,50.9 -246,119.9 -308,16.3 V 2795.9 l -202.7,-121.54 -363.01,77.05 -339.85,-54.88 -310.55,-253.89 v -246.3 l 184.44,-306.31 293.47,-295.85 -16.48,-269.78 172.49,-313.4 325.29,46.08 598.7,-104.111 494.9,-223.399 144.6,488.43 -113.5,615.85 -148.9,102.87 570.1,151.97 253.5,-16.06 60.7,73.62 -103.1,147.82 0.5,3.2 -243.2,330.54 -395.1,180.93" />
            <path id="SouthKazakhstan" style="fill:#fad43d;fill-opacity:1;fill-rule:nonzero;stroke:none" d="m 7800.28,1146.22 -172.82,115.07 61.54,366.56 -226.62,786.7 -592.14,6.07 24.99,-84.83 v -250.68 l 114.57,-470.33 142.18,-122.35 -154.78,-390.79 -448.62,-376.66 0.43,-2.96 147.39,-515.95 374.43,43.578 L 7059.08,96.7695 7312.54,0 l 9.89,66.0703 212.97,318.0707 505.26,311.019 -181.75,252.692 -58.63,198.368" />
            <path id="EastKazakhstan" style="fill:#fad43d;fill-opacity:1;fill-rule:nonzero;stroke:none" d="m 13482,4030.11 -228.5,199.15 -419.6,57.43 -307.4,256.86 -339.3,395.94 -626.6,-84.47 -104.6,147.23 -165.4,55.69 -188.9,-208.59 -185.5,342.24 -9.5,17.53 -335.9,-236.74 191.7,-220.66 -48.4,-253.6 -202.5,-23.92 -157.9,78.71 -361.21,-432.55 146.61,-150.84 27.6,-410.22 -0.6,-3.34 -80.8,-439.74 28.2,-88.72 152.8,19.96 3.3,-25.73 v 31.71 l 376.6,-19.92 248.9,-121.26 307.6,-50.79 414.6,-189.86 220.9,-300.2 10.7,59.4 275.6,604.52 557.8,-146.76 261.5,225.57 -0.6,510.53 360.7,147.31 178.1,258.13" />
           </g>
    </g>
</svg>